<svg xmlns="http://www.w3.org/2000/svg" viewBox="0 0 24 23.327"><path d="M1.257,15.9C-.482,18.4-.036,20.936.364,23.167c.031.154.062.308.077.462.369,2.123.877,5.016,3.339,5.447a32.807,32.807,0,0,0,5.093.446A8.4,8.4,0,0,0,12.32,29a9.558,9.558,0,0,0,1.923-1.216,2.057,2.057,0,0,1,.923-.523,2.853,2.853,0,0,1,.385-.015,15.607,15.607,0,0,1,1.816.138.879.879,0,0,0-.138.492.913.913,0,0,0,.923.908h0l4.924-.015A.913.913,0,0,0,24,27.86V16.782a.926.926,0,0,0-.923-.923h-4.77a.994.994,0,0,0-.523.154c-1.077-.339-3.016-1.139-3.662-2.185A68.109,68.109,0,0,1,11.013,6.8a.931.931,0,0,0-.754-.585c-.031,0-.2-.015-.446-.015-2.8,0-3.8,1.831-3.8,3.539a15.875,15.875,0,0,0,.662,4.385c-.323-.031-.677-.046-1.046-.046A5.031,5.031,0,0,0,1.257,15.9ZM22.168,26.937l-3.324.015a.9.9,0,0,0,.092-.4V17.7h3.231ZM2.78,16.966A3.476,3.476,0,0,1,5.658,15.9a10.241,10.241,0,0,1,2.2.262.91.91,0,0,0,.939-.292.928.928,0,0,0,.154-.969A14.681,14.681,0,0,1,7.9,9.719a1.433,1.433,0,0,1,.662-1.4,2.278,2.278,0,0,1,.985-.277,61.212,61.212,0,0,0,3.031,6.74c.985,1.616,3.324,2.554,4.524,2.939v7.771A12.509,12.509,0,0,0,15,25.414a3.383,3.383,0,0,0-1.862.908,8.207,8.207,0,0,1-1.57,1,6.767,6.767,0,0,1-2.662.354,31.323,31.323,0,0,1-4.77-.415c-1-.169-1.416-1.523-1.831-3.939-.031-.154-.062-.308-.077-.462C1.826,20.782,1.472,18.828,2.78,16.966Z" transform="translate(0.001 -6.195)"/></svg>