<svg xmlns="http://www.w3.org/2000/svg" viewBox="0 0 18 13.331"><g transform="translate(133 283)"><path d="M.215,61.228l-.024.024-.024.024c-.012.012-.012.024-.024.036l-.024.024c-.012.012-.012.024-.024.036s-.012.012-.012.024-.012.024-.024.048-.012.012-.012.024-.012.036-.024.048v.012a.108.108,0,0,0-.012.06V61.6c0,.024-.012.036-.012.06v.168a.108.108,0,0,0,.012.06V61.9c0,.024.012.036.012.06v.012c.012.012.012.036.024.048s.012.012.012.024.012.036.024.048S.1,62.1.1,62.117s.012.024.024.036.012.012.024.024.012.024.024.036l.024.024.024.024.012.012L6.9,68.229a.723.723,0,1,0,.961-1.081L2.593,62.477H17.279a.72.72,0,1,0,0-1.441H2.593l5.259-4.7a.723.723,0,0,0-.961-1.081L.227,61.216A.012.012,0,0,1,.215,61.228Z" transform="translate(-132.999 -338.077)"/></g></svg>