<svg xmlns="http://www.w3.org/2000/svg" viewBox="0 0 24 22.241"><g class="a"><path d="M12,17.425c-6.622,0-12,4.219-12,9.4a8.632,8.632,0,0,0,3.933,6.965l-.858,4.877a.839.839,0,0,0,.343.844.8.8,0,0,0,.5.157.759.759,0,0,0,.4-.1l6.336-3.4c.458.043.9.057,1.344.057,6.622,0,12-4.219,12-9.4S18.622,17.425,12,17.425Zm0,17.063c-.458,0-.944-.029-1.43-.072a.879.879,0,0,0-.5.1L5.063,37.206l.644-3.676a.85.85,0,0,0-.386-.872A7.07,7.07,0,0,1,1.7,26.822c0-4.234,4.62-7.681,10.284-7.681s10.284,3.447,10.284,7.681S17.664,34.488,12,34.488Z" transform="translate(0 -17.425)"/></g></svg>
