<svg xmlns="http://www.w3.org/2000/svg" viewBox="0 0 24 21.402"><path d="M.829,39.1H2.784v7.82a.84.84,0,0,0,.838.838H9.347a.84.84,0,0,0,.838-.838V41.193h3.491v5.725a.84.84,0,0,0,.838.838h5.446a.84.84,0,0,0,.838-.838V39.1h2.374a.834.834,0,0,0,.586-1.424L12.838,26.6a.834.834,0,0,0-1.173-.014L.257,37.66a.838.838,0,0,0-.2.922A.817.817,0,0,0,.829,39.1ZM12.223,28.375l8.937,9.048h-1.2a.84.84,0,0,0-.838.838v7.82h-3.77V40.355a.84.84,0,0,0-.838-.838H9.347a.84.84,0,0,0-.838.838V46.08H4.46v-7.82a.84.84,0,0,0-.838-.838H2.9Z" transform="translate(0 -26.353)"/></svg>