<svg xmlns="http://www.w3.org/2000/svg" viewBox="0 0 18 16.623"><path d="M8.667,33.426a.736.736,0,0,0,.38.115.668.668,0,0,0,.38-.115c.311-.208,7.62-5.026,8.45-9.926a5.872,5.872,0,0,0-1.084-4.969,4.492,4.492,0,0,0-3.378-1.614,3.275,3.275,0,0,0-1.176.208,8.58,8.58,0,0,0-3.585,2.617,7.323,7.323,0,0,0-3.032-2.363,4.007,4.007,0,0,0-1.3-.208,4.132,4.132,0,0,0-3.066,1.337,5.809,5.809,0,0,0-1.21,4.669C.528,28.077,8.333,33.207,8.667,33.426ZM2.281,19.431a2.734,2.734,0,0,1,2.04-.888,2.6,2.6,0,0,1,.853.138,7.18,7.18,0,0,1,2.905,2.594.671.671,0,0,0,.6.323.7.7,0,0,0,.588-.346,7.308,7.308,0,0,1,3.47-2.847,2.1,2.1,0,0,1,.68-.115,3.118,3.118,0,0,1,2.317,1.13,4.579,4.579,0,0,1,.772,3.85c-.3,1.752-1.729,3.85-4.139,6.075a32.924,32.924,0,0,1-3.32,2.663,34.6,34.6,0,0,1-3.516-2.8C3.018,26.9,1.6,24.769,1.427,23.039A4.61,4.61,0,0,1,2.281,19.431Z" transform="translate(0.001 -16.918)"/></svg>