<?xml version="1.0" encoding="utf-8"?>
<!-- Generator: Adobe Illustrator 15.1.0, SVG Export Plug-In . SVG Version: 6.00 Build 0)  -->
<!DOCTYPE svg PUBLIC "-//W3C//DTD SVG 1.1//EN" "http://www.w3.org/Graphics/SVG/1.1/DTD/svg11.dtd">
<svg version="1.1" id="Layer_1" xmlns="http://www.w3.org/2000/svg" xmlns:xlink="http://www.w3.org/1999/xlink" x="0px" y="0px"
	 width="24px" height="24px" viewBox="0 0 24 24" enable-background="new 0 0 24 24" xml:space="preserve">
<g>
	<circle fill="none" cx="12" cy="3.273" r="2.452"/>
	<path d="M12,6.546c1.809,0,3.273-1.465,3.273-3.273S13.809,0,12,0c-1.808,0-3.273,1.465-3.273,3.273S10.192,6.546,12,6.546z
		 M12,1.571c0.939,0,1.701,0.762,1.701,1.702S12.939,4.975,12,4.975c-0.94,0-1.702-0.762-1.702-1.702S11.06,1.571,12,1.571z"/>
	<path d="M12,8.727c-1.808,0-3.273,1.465-3.273,3.273c0,1.809,1.465,3.273,3.273,3.273c1.809,0,3.273-1.467,3.273-3.273
		C15.273,10.193,13.809,8.727,12,8.727z M12,13.701c-0.94,0-1.702-0.762-1.702-1.701c0-0.94,0.762-1.702,1.702-1.702
		c0.939,0,1.701,0.762,1.701,1.702C13.701,12.939,12.939,13.701,12,13.701z"/>
	<path d="M12,17.454c-1.808,0-3.273,1.466-3.273,3.272C8.727,22.535,10.192,24,12,24c1.809,0,3.273-1.465,3.273-3.273
		C15.273,18.92,13.809,17.454,12,17.454z M12,22.563c-1.014,0-1.836-0.822-1.836-1.837c0-1.013,0.822-1.835,1.836-1.835
		s1.835,0.822,1.835,1.835C13.835,21.741,13.014,22.563,12,22.563z"/>
</g>
</svg>
