<svg xmlns="http://www.w3.org/2000/svg" viewBox="0 0 21 21"><g transform="translate(-96 -494)"><g transform="translate(96 494)"><path d="M0,0V7H7V0ZM1,5V1H6V6H1Z"/></g><g transform="translate(96 502)"><path d="M0,0V5H3V4H1V0Z"/></g><g transform="translate(98 496)"><path d="M-14-21h1v-3h-3v3h2Z" transform="translate(16 24)"/></g><g transform="translate(98 510)"><path d="M-7,0H-8V3h3V0H-7Z" transform="translate(8)"/></g><path d="M32-71h1v-1H32Z" transform="translate(68 578)"/><g transform="translate(96 508)"><path d="M-42,0h-6V7h7V0Zm-5,5V1h5V6h-5Z" transform="translate(48)"/></g><g transform="translate(98 502)"><path d="M-35-21v-1h-1v-1h1v-1h-5v1h1v1h-1v1h2v-2h1v3h1v-1Z" transform="translate(40 24)"/></g><g transform="translate(102 506)"><path d="M-14,0h-2V1h2Z" transform="translate(16)"/></g><g transform="translate(104 496)"><path d="M-7-28v-1h1v-1H-7v-2H-8v6h1v3h1v-4H-7Z" transform="translate(8 32)"/></g><path d="M65-64H64v1h1Z" transform="translate(40 571)"/><g transform="translate(106 494)"><path d="M-7-21h1v-2h1v-1H-8v4h1Z" transform="translate(8 24)"/></g><g transform="translate(106 499)"><path d="M-7,0H-8V2h1V0Z" transform="translate(8)"/></g><path d="M80-63h1v-1H80Z" transform="translate(26 571)"/><path d="M80-31h1v-1H80Z" transform="translate(26 543)"/><path d="M88-87h1v-1H88Z" transform="translate(19 592)"/><path d="M88-71h1v-1H88Z" transform="translate(19 578)"/><g transform="translate(107 498)"><path d="M-21-42v-1h-1v-5h-2v1h1v2h-1v1h1v2h1v1h2v-1Z" transform="translate(24 48)"/></g><path d="M112-7h1V-8h-1Z" transform="translate(-2 522)"/><g transform="translate(112 496)"><path d="M-7,0H-8V3h3V0H-7Z" transform="translate(8)"/></g><g transform="translate(104 505)"><path d="M-70,0h-3V1h-1V2h-2V5h-1V6h2V7h-2V8h-1V7h-1V6h1V5h1V4h-3V8h1V9h-1v1h2V9h4V6h1V7h2V8h-2V9h4V8h-1V6h-1V5h-3V3h3V5h2V4h-1V2h-1V1h2V0Zm-2,2h-1V1h1Z" transform="translate(80)"/></g><g transform="translate(110 502)"><path d="M-35-7V-8h-5v1h1v1h2V-7h1v1h1v1h1V-6h1V-7h-2Z" transform="translate(40 8)"/></g><g transform="translate(115 507)"><path d="M-7-7h1V-8H-8v2h1Z" transform="translate(8 8)"/></g><g transform="translate(115 510)"><path d="M-7-7h1V-8H-8v1Z" transform="translate(8 8)"/></g><path d="M152-7h1V-8h-1Z" transform="translate(-37 522)"/><g transform="translate(110 494)"><path d="M-42-14v4h-5v-5h5Zm0-2h-6v7h7v-7Z" transform="translate(48 16)"/></g></g></svg>